<?xml version="1.0" encoding="UTF-8" standalone="no"?>
<!-- Created with Inkscape (http://www.inkscape.org/) -->

<svg
   id="svg2996"
   height="32"
   width="32"
   version="1.1"
   sodipodi:docname="wiktionary-favicon.svg"
   inkscape:export-xdpi="384"
   inkscape:export-ydpi="384"
   inkscape:version="1.1 (ce6663b3b7, 2021-05-25)"
   xmlns:inkscape="http://www.inkscape.org/namespaces/inkscape"
   xmlns:sodipodi="http://sodipodi.sourceforge.net/DTD/sodipodi-0.dtd"
   xmlns:xlink="http://www.w3.org/1999/xlink"
   xmlns="http://www.w3.org/2000/svg"
   xmlns:svg="http://www.w3.org/2000/svg"
   xmlns:rdf="http://www.w3.org/1999/02/22-rdf-syntax-ns#"
   xmlns:cc="http://creativecommons.org/ns#"
   xmlns:dc="http://purl.org/dc/elements/1.1/">
  <sodipodi:namedview
     id="namedview21"
     pagecolor="#ffffff"
     bordercolor="#111111"
     borderopacity="1"
     inkscape:pageshadow="0"
     inkscape:pageopacity="0"
     inkscape:pagecheckerboard="1"
     showgrid="false"
     inkscape:zoom="14.4375"
     inkscape:cx="12.952381"
     inkscape:cy="13.437229"
     inkscape:window-width="1920"
     inkscape:window-height="1056"
     inkscape:window-x="0"
     inkscape:window-y="24"
     inkscape:window-maximized="1"
     inkscape:current-layer="layer1" />
  <title
     id="title3072">wiktionary favicon</title>
  <defs
     id="defs2998">
    <linearGradient
       id="linearGradient3074">
      <stop
         id="stop3076"
         stop-color="#000000"
         offset="0" />
      <stop
         id="stop3078"
         stop-color="#ffffff"
         offset="1" />
    </linearGradient>
    <linearGradient
       id="linearGradient3408"
       y2="659.91"
       xlink:href="#linearGradient3074"
       gradientUnits="userSpaceOnUse"
       x2="844.82"
       y1="659.91"
       x1="828.98" />
    <linearGradient
       id="linearGradient4597"
       y2="659.91"
       xlink:href="#linearGradient3074"
       gradientUnits="userSpaceOnUse"
       x2="833.88"
       y1="659.91"
       x1="829.06"
       gradientTransform="scale(0.98932985,1.0107852)" />
    <linearGradient
       inkscape:collect="always"
       xlink:href="#linearGradient3074"
       id="linearGradient930"
       gradientUnits="userSpaceOnUse"
       x1="829.06"
       y1="659.91"
       x2="833.88"
       y2="659.91"
       gradientTransform="matrix(-0.98932985,0,0,1.0107852,1668.5714,0)" />
  </defs>
  <metadata
     id="metadata3001">
    <rdf:RDF>
      <cc:Work
         rdf:about="">
        <dc:format>image/svg+xml</dc:format>
        <dc:type
           rdf:resource="http://purl.org/dc/dcmitype/StillImage" />
        <dc:title>wiktionary favicon</dc:title>
      </cc:Work>
    </rdf:RDF>
  </metadata>
  <g
     id="layer1"
     transform="translate(-818.28571,-653.50507)">
    <rect
       style="fill:#ffffff;stroke-width:3.77952"
       id="rect1249"
       width="32"
       height="32"
       x="818.28571"
       y="653.50507" />
    <path
       id="path4601"
       d="m 826.47071,664.65206 h 2.28671 l 2.85839,9.98075 2.84597,-9.98075 h 2.6968 l 2.85839,9.98075 2.84597,-9.98075 h 2.28671 l -3.64131,12.7894 h -2.6968 l -2.99505,-10.48305 -3.00746,10.48305 h -2.6968 z"
       style="fill:#000000" />
    <path
       id="path3038"
       d="m 819.28384,658.50634 h 4.99997 v 1.99074 h -3.00875 v 18.01826 h 3.00875 v 1.99074 h -4.99997 z"
       fill="url(#linearGradient4597)"
       style="fill:url(#linearGradient4597)" />
    <path
       id="path4604"
       d="m 823.93,667.73 -0.36878,-0.0952 c -0.52345,-2.6013 -0.78516,-3.9496 -0.78516,-4.0448 0,-0.31722 0.14473,-0.61661 0.43421,-0.89818 0.28948,-0.28153 0.67611,-0.4223 1.1599,-0.42232 0.24585,2e-5 0.44611,0.0238 0.60076,0.0714 0.15465,0.0476 0.26569,0.12096 0.3331,0.22008 0.0674,0.0992 0.11103,0.19234 0.13086,0.27957 0.0198,0.0873 0.0297,0.19828 0.0297,0.3331 0,0.11104 -0.0753,0.53535 -0.22603,1.2729 l -0.45206,2.1176 -0.22603,1.0231 z"
       style="fill:#000000" />
    <path
       id="path926"
       d="m 849.28756,658.50634 h -4.99997 v 1.99074 h 3.00875 v 18.01826 h -3.00875 v 1.99074 h 4.99997 z"
       fill="url(#linearGradient4597)"
       style="fill:url(#linearGradient930)" />
  </g>
</svg>
